<svg width="12" height="10" viewBox="0 0 12 10" fill="none" xmlns="http://www.w3.org/2000/svg">
<g id="3 User">
<path id="Stroke 1" d="M8.94336 4.44836C9.64086 4.35036 10.1779 3.75236 10.1794 3.02786C10.1794 2.31386 9.65886 1.72186 8.97636 1.60986" stroke="#7E7E7E" stroke-linecap="round" strokeLinejoin="round"/>
<path id="Stroke 3" d="M9.86523 6.125C10.5407 6.226 11.0122 6.4625 11.0122 6.95C11.0122 7.2855 10.7902 7.5035 10.4312 7.6405" stroke="#7E7E7E" stroke-linecap="round" strokeLinejoin="round"/>
<path id="Stroke 5" fillRule="evenodd" clipRule="evenodd" d="M5.94434 6.33203C4.33734 6.33203 2.96484 6.57553 2.96484 7.54803C2.96484 8.52003 4.32884 8.77053 5.94434 8.77053C7.55134 8.77053 8.92334 8.52953 8.92334 7.55653C8.92334 6.58353 7.55984 6.33203 5.94434 6.33203Z" stroke="#7E7E7E" stroke-linecap="round" strokeLinejoin="round"/>
<path id="Stroke 7" fillRule="evenodd" clipRule="evenodd" d="M5.94272 4.944C6.99722 4.944 7.85222 4.0895 7.85222 3.0345C7.85222 1.98 6.99722 1.125 5.94272 1.125C4.88822 1.125 4.03322 1.98 4.03322 3.0345C4.02922 4.0855 4.87772 4.9405 5.92872 4.944H5.94272Z" stroke="#7E7E7E" stroke-linecap="round" strokeLinejoin="round"/>
<path id="Stroke 9" d="M2.94303 4.44836C2.24503 4.35036 1.70853 3.75236 1.70703 3.02786C1.70703 2.31386 2.22753 1.72186 2.91003 1.60986" stroke="#7E7E7E" stroke-linecap="round" strokeLinejoin="round"/>
<path id="Stroke 11" d="M2.022 6.125C1.3465 6.226 0.875 6.4625 0.875 6.95C0.875 7.2855 1.097 7.5035 1.456 7.6405" stroke="#7E7E7E" stroke-linecap="round" strokeLinejoin="round"/>
</g>
</svg>
